<svg width="64" height="64" viewBox="0 0 64 64" fill="none" xmlns="http://www.w3.org/2000/svg">
  <!-- Background -->
  <rect width="64" height="64" rx="8" fill="#0a0a0a"/>
  
  <!-- Outer hexagon frame -->
  <path
    d="M32 6L54 19V45L32 58L10 45V19L32 6Z"
    stroke="#f97316"
    stroke-width="2"
    fill="none"
  />
  
  <!-- Inner circuit lines -->
  <path
    d="M20 20L32 20M32 20L32 28M32 20L44 20"
    stroke="#71717a"
    stroke-width="2"
    stroke-linecap="round"
  />
  <path
    d="M20 44L32 44M32 44L32 36M32 44L44 44"
    stroke="#71717a"
    stroke-width="2"
    stroke-linecap="round"
  />
  
  <!-- Central gear circle -->
  <circle
    cx="32"
    cy="32"
    r="10"
    stroke="#f97316"
    stroke-width="2.5"
    fill="none"
  />
  
  <!-- Gear teeth -->
  <path
    d="M32 20V24M32 40V44M20 32H24M40 32H44"
    stroke="#f97316"
    stroke-width="3"
    stroke-linecap="round"
  />
  
  <!-- Diagonal gear teeth -->
  <path
    d="M23.5 23.5L26.3 26.3M37.7 37.7L40.5 40.5M40.5 23.5L37.7 26.3M26.3 37.7L23.5 40.5"
    stroke="#f97316"
    stroke-width="2.5"
    stroke-linecap="round"
  />
  
  <!-- Center dot -->
  <circle cx="32" cy="32" r="3" fill="#f97316"/>
  
  <!-- Corner circuit nodes -->
  <circle cx="20" cy="20" r="2" fill="#22d3ee"/>
  <circle cx="44" cy="20" r="2" fill="#22d3ee"/>
  <circle cx="20" cy="44" r="2" fill="#22d3ee"/>
  <circle cx="44" cy="44" r="2" fill="#22d3ee"/>
</svg>